<?xml version="1.0" encoding="utf-8"?>
<svg xmlns="http://www.w3.org/2000/svg" aria-label="Gmail" role="img" viewBox="0 0 512 512">
  <g transform="matrix(1, 0, 0, 1, -3.180002, 6.678513)">
    <path d="M 132.901 421.741 L 132.901 240.097 L 27.238 159.508 L 27.238 383.366 C 27.238 408.95 40.123 421.741 65.895 421.741" fill="#4285f4" style=""/>
    <path d="M 127.746 238.818 L 259.18 337.314 L 390.614 238.818 L 390.614 113.457 L 259.18 211.954 L 127.746 113.457" fill="#ea4335" style=""/>
    <path d="M 385.459 421.741 L 385.459 240.097 L 491.122 159.508 L 491.122 383.366 C 491.122 408.95 478.237 421.741 452.465 421.741" fill="#34a853" style=""/>
    <path d="M 27.238 162.066 L 132.901 242.656 L 132.901 117.295 L 94.243 87.874 C 59.452 61.011 27.238 87.874 27.238 121.131" fill="#c5221f" style=""/>
    <path d="M 491.122 162.066 L 385.459 242.656 L 385.459 117.295 L 424.117 87.874 C 458.908 61.011 491.122 87.874 491.122 121.131" fill="#fbbc04" style=""/>
  </g>
</svg>