<!DOCTYPE svg PUBLIC "-//W3C//DTD SVG 1.1//EN" "http://www.w3.org/Graphics/SVG/1.1/DTD/svg11.dtd">
<!-- Uploaded to: SVG Repo, www.svgrepo.com, Transformed by: SVG Repo Mixer Tools -->
<svg width="800px" height="800px" viewBox="-2.4 -2.4 28.80 28.80" fill="none" xmlns="http://www.w3.org/2000/svg" transform="matrix(-1, 0, 0, 1, 0, 0)">
<g id="SVGRepo_bgCarrier" stroke-width="0"/>
<g id="SVGRepo_tracerCarrier" stroke-linecap="round" stroke-linejoin="round"/>
<g id="SVGRepo_iconCarrier"> <path d="M20 10L20.7071 10.7071L21.4142 10L20.7071 9.29289L20 10ZM3 18C3 18.5523 3.44772 19 4 19C4.55229 19 5 18.5523 5 18L3 18ZM15.7071 15.7071L20.7071 10.7071L19.2929 9.29289L14.2929 14.2929L15.7071 15.7071ZM20.7071 9.29289L15.7071 4.29289L14.2929 5.70711L19.2929 10.7071L20.7071 9.29289ZM20 9L10 9L10 11L20 11L20 9ZM3 16L3 18L5 18L5 16L3 16ZM10 9C6.13401 9 3 12.134 3 16L5 16C5 13.2386 7.23858 11 10 11L10 9Z" fill="#fff"/> </g>
</svg>