<?xml version="1.0" standalone="no"?>
<!DOCTYPE svg PUBLIC "-//W3C//DTD SVG 20010904//EN"
 "http://www.w3.org/TR/2001/REC-SVG-20010904/DTD/svg10.dtd">
<svg version="1.0" xmlns="http://www.w3.org/2000/svg"
 width="960.000000pt" height="960.000000pt" viewBox="0 0 960.000000 960.000000"
 preserveAspectRatio="xMidYMid meet">
<metadata>
Created by potrace 1.16, written by Peter Selinger 2001-2019
</metadata>
<g transform="translate(0.000000,960.000000) scale(0.100000,-0.100000)"
fill="#000000" stroke="none">
<path d="M9595 6860 c0 -1510 1 -2127 2 -1372 2 754 2 1990 0 2745 -1 754 -2
137 -2 -1373z"/>
<path d="M699 9412 c-165 -43 -302 -180 -353 -351 -14 -49 -16 -190 -16 -1376
0 -1457 -3 -1383 63 -1494 42 -71 121 -150 189 -189 116 -67 -130 -62 3112
-62 1617 0 2942 2 2944 5 3 3 -1304 5 -2904 5 -1946 0 -2931 4 -2974 10 -157
25 -293 127 -366 274 l-39 80 -3 1345 c-2 1323 -2 1347 18 1412 47 156 179
283 335 323 53 14 483 16 4130 16 3625 0 4077 -2 4130 -15 182 -48 325 -207
355 -395 6 -42 10 -509 10 -1325 0 -1369 1 -1337 -56 -1452 -53 -109 -166
-206 -287 -246 -57 -19 -91 -21 -409 -25 -311 -3 -349 -2 -372 13 -20 13 -38
15 -89 10 l-64 -7 -62 54 c-35 29 -84 68 -109 87 -45 32 -50 33 -117 29 -48
-3 -91 -14 -135 -33 -91 -40 -126 -69 -152 -126 -17 -35 -27 -46 -38 -42 -8 4
-39 9 -68 11 -51 4 -55 2 -91 -36 -48 -51 -77 -133 -96 -272 -17 -120 -19
-256 -6 -264 9 -6 16 9 59 129 17 49 18 50 62 53 48 4 132 -12 319 -59 165
-42 297 -36 313 13 3 7 50 -35 106 -92 116 -118 135 -158 136 -282 1 -70 10
-81 44 -59 13 8 70 1 103 -13 15 -7 28 29 45 129 4 22 16 52 27 67 14 19 21
48 25 102 4 73 5 76 27 70 67 -17 57 167 -16 290 -11 20 -25 34 -29 31 -4 -3
-7 2 -6 11 0 9 -15 29 -34 45 -28 23 -46 29 -93 31 -53 2 -58 4 -52 23 15 47
17 65 6 65 -6 0 -10 -3 -10 -7 1 -5 1 -17 0 -28 -1 -15 -3 -17 -10 -7 -6 10
-10 9 -14 -7 -3 -12 -11 -21 -19 -21 -11 0 -11 2 0 9 8 5 15 20 15 34 1 14 4
25 7 25 17 -1 23 3 13 10 -6 4 151 6 349 4 301 -2 370 0 421 13 159 40 298
174 347 334 20 63 20 94 20 1388 0 881 -4 1339 -11 1370 -27 122 -144 270
-259 328 -116 59 189 55 -4240 54 -3810 0 -4069 -1 -4131 -17z m7187 -3368
c19 -9 34 -21 34 -28 0 -6 16 -22 35 -35 19 -13 35 -28 35 -33 0 -5 5 -6 12
-2 7 5 9 2 6 -7 -8 -20 58 -65 89 -61 15 2 23 -2 23 -11 0 -9 -3 -17 -7 -19
-5 -1 -24 -23 -44 -48 -57 -71 -143 -154 -147 -142 -1 5 7 31 19 58 l23 47
-34 28 -33 28 29 7 c16 4 33 9 38 12 10 6 -38 52 -56 53 -15 0 -65 59 -50 59
5 0 35 -18 67 -41 31 -22 59 -38 61 -36 2 2 -22 24 -52 50 -31 26 -52 47 -47
47 5 0 18 -7 29 -15 10 -8 22 -15 27 -15 18 0 2 18 -48 55 -30 22 -54 46 -55
53 0 16 5 15 46 -4z m391 -238 c17 -9 33 -22 36 -29 6 -15 -40 -39 -49 -26 -3
5 0 9 6 9 17 0 3 17 -19 23 -17 4 -19 1 -14 -24 4 -22 2 -29 -11 -29 -9 0 -16
-4 -16 -10 0 -5 6 -10 14 -10 7 0 16 -9 19 -20 3 -11 1 -17 -4 -14 -5 3 -12
-2 -15 -10 -3 -9 -11 -16 -17 -16 -7 0 -7 4 1 12 19 19 14 25 -18 25 -24 0
-32 -6 -36 -24 -4 -13 -4 -32 -1 -42 8 -30 -33 -47 -72 -30 -17 8 -31 17 -31
20 0 6 -38 22 -51 21 -3 -1 -3 12 -1 28 5 33 103 133 110 112 7 -23 32 -12 32
15 0 14 8 34 18 43 18 18 47 13 119 -24z"/>
<path d="M2765 9256 c-101 -25 -209 -85 -199 -111 4 -10 17 -6 57 19 54 34
146 70 156 60 3 -3 0 -8 -6 -12 -112 -69 -183 -119 -183 -129 0 -17 98 -121
121 -128 27 -9 24 -21 -22 -83 -105 -138 -262 -283 -382 -352 -46 -27 -49 -30
-24 -30 15 0 27 -2 27 -5 0 -3 -13 -32 -30 -65 -16 -33 -30 -66 -30 -75 0 -9
14 -42 30 -75 37 -74 55 -76 112 -14 79 86 84 96 97 206 13 100 14 104 54 146
23 23 45 42 49 42 4 0 8 -148 8 -328 0 -324 0 -330 23 -372 16 -30 37 -51 67
-67 l43 -23 1975 0 1976 0 43 21 c23 11 53 35 65 52 l23 32 2 535 3 535 -23
39 c-13 25 -39 48 -66 63 l-44 23 -1889 0 -1888 0 0 35 c0 43 -29 75 -67 74
-16 0 -50 -6 -78 -13z m952 -311 c61 -18 107 -65 123 -126 8 -27 10 -135 8
-313 -3 -242 -5 -275 -22 -306 -39 -73 -80 -103 -157 -115 -94 -14 -185 33
-223 114 -20 44 -21 60 -20 318 1 231 3 279 18 317 19 51 72 103 114 112 15 3
32 7 37 9 24 8 75 4 122 -10z m-837 -2 c0 -5 9 -109 20 -233 11 -124 20 -234
20 -244 0 -11 2 -17 4 -15 2 2 14 112 26 244 12 132 24 243 27 248 2 4 37 7
78 7 41 0 76 -3 78 -7 3 -5 13 -120 23 -256 10 -136 20 -244 22 -238 2 5 13
119 25 253 l22 243 80 1 c44 1 83 0 86 -2 3 -1 0 -54 -8 -116 -27 -233 -83
-730 -83 -734 0 -2 -47 -4 -105 -4 -102 0 -105 1 -106 23 -2 76 -37 348 -42
327 -3 -14 -11 -79 -17 -145 -6 -66 -13 -139 -17 -162 l-5 -43 -103 0 -102 0
-6 28 c-3 15 -20 176 -38 357 l-32 330 54 73 c39 52 60 72 76 72 13 0 23 -3
23 -7z m1373 -16 c46 -30 61 -72 65 -184 5 -114 -7 -165 -43 -189 l-24 -16 27
-23 27 -23 3 -201 3 -201 -85 0 -86 0 0 183 c0 189 -4 207 -42 207 -17 0 -18
-14 -18 -195 l0 -195 -90 0 -90 0 0 423 c0 233 3 427 8 431 4 4 77 6 162 4
128 -2 161 -6 183 -21z m822 9 c26 -8 61 -27 77 -43 31 -30 58 -105 58 -165
l0 -38 -85 0 -85 0 0 33 c0 18 -6 42 -14 52 -12 17 -17 18 -41 7 -48 -22 -29
-62 85 -178 126 -127 145 -165 144 -286 -1 -75 -5 -95 -30 -145 -39 -78 -74
-98 -174 -97 -89 0 -147 25 -179 77 -20 33 -40 136 -41 210 l0 37 90 0 89 0 3
-76 c2 -60 7 -79 20 -88 29 -18 53 15 50 70 -2 63 -36 116 -120 191 -88 79
-122 142 -122 227 0 84 15 130 55 170 52 52 133 68 220 42z m951 -1 c54 -16
80 -39 110 -95 17 -32 19 -59 18 -318 l-2 -283 -28 -57 c-38 -75 -88 -105
-177 -104 -99 0 -148 28 -190 107 -21 38 -22 52 -22 330 0 277 1 292 21 330
28 51 50 71 100 89 51 19 109 19 170 1z m-1495 -152 l1 -158 35 145 c19 80 36
151 38 158 5 13 175 18 175 5 0 -5 -21 -94 -47 -199 l-46 -191 53 -219 c29
-120 55 -225 57 -231 4 -10 -17 -13 -85 -13 -78 0 -91 2 -96 18 -2 9 -22 96
-43 192 l-38 175 -3 -192 -2 -193 -85 0 -85 0 0 430 0 430 85 0 85 0 1 -157z
m899 2 l0 -155 40 0 40 0 0 155 0 155 85 0 85 0 0 -430 0 -430 -85 0 -85 0 0
195 0 195 -40 0 -40 0 0 -195 0 -195 -85 0 -85 0 0 430 0 430 85 0 85 0 0
-155z m1104 122 c27 -15 48 -38 65 -72 24 -45 26 -61 26 -165 0 -103 -3 -120
-25 -164 -34 -69 -62 -86 -148 -93 l-72 -6 -2 -166 -3 -166 -82 -3 -83 -3 0
431 0 430 143 0 c128 0 146 -2 181 -23z"/>
<path d="M3616 8784 c-14 -13 -16 -51 -16 -264 0 -213 2 -251 16 -264 20 -20
28 -20 45 1 11 12 15 72 17 263 3 218 1 249 -13 264 -20 20 -29 20 -49 0z"/>
<path d="M5919 8773 c-18 -21 -26 -463 -10 -506 12 -31 55 -38 65 -11 3 9 6
127 6 263 0 248 -3 271 -36 271 -6 0 -18 -7 -25 -17z"/>
<path d="M2497 8949 c-28 -16 -40 -58 -26 -91 19 -46 89 -55 122 -16 51 60
-26 147 -96 107z"/>
<path d="M2130 8840 c-19 -4 -57 -11 -84 -15 -44 -6 -58 -15 -118 -73 -88 -85
-89 -104 -4 -141 l59 -25 75 39 c73 39 75 41 88 92 7 29 25 71 39 93 l25 40
-22 -1 c-13 -1 -39 -5 -58 -9z"/>
<path d="M2274 8674 c-16 -8 -57 -37 -89 -64 -59 -48 -81 -57 -54 -23 13 16
12 17 -4 4 -10 -8 -15 -21 -12 -28 3 -9 -18 -40 -50 -76 -30 -34 -55 -69 -55
-78 0 -15 30 -49 43 -49 4 0 36 25 72 56 51 43 71 54 88 49 16 -5 18 -4 8 3
-11 8 -8 18 18 53 65 90 80 115 83 138 4 30 -9 35 -48 15z"/>
<path d="M3002 7778 c-108 -52 -131 -163 -56 -273 13 -20 24 -39 24 -43 -1 -4
-21 -22 -45 -40 -57 -41 -85 -95 -85 -162 0 -117 78 -186 225 -197 83 -7 162
8 228 43 l48 25 47 -33 c35 -24 58 -32 92 -33 l45 0 2 50 3 50 -51 24 c-37 17
-49 28 -45 40 3 9 14 41 25 71 11 30 20 76 21 101 0 51 -8 59 -61 59 -47 0
-69 -16 -69 -52 0 -35 -20 -108 -29 -108 -10 0 -146 139 -140 143 2 2 29 20
60 40 82 51 104 87 104 168 0 77 -14 100 -80 130 -59 27 -204 26 -263 -3z
m171 -89 c64 -34 46 -96 -44 -153 -26 -16 -27 -16 -47 8 -33 43 -44 79 -33
109 16 42 78 60 124 36z m-33 -401 c49 -45 86 -86 84 -90 -3 -4 -29 -15 -59
-23 -96 -28 -180 15 -180 93 0 38 36 102 56 102 6 0 50 -37 99 -82z"/>
<path d="M1828 7758 c-15 -13 -238 -639 -238 -671 0 -14 10 -17 59 -17 35 0
63 5 68 13 6 6 20 43 33 80 l22 68 131 -3 132 -3 26 -75 26 -75 72 -3 c65 -3
71 -1 71 17 0 33 -222 655 -238 669 -9 7 -44 12 -82 12 -38 0 -73 -5 -82 -12z
m172 -420 c0 -9 -184 -11 -192 -2 -5 4 51 182 89 284 4 12 103 -257 103 -282z"/>
<path d="M2358 7759 c-17 -9 -18 -36 -18 -337 0 -242 3 -331 12 -340 19 -19
124 -16 132 4 3 9 6 161 6 339 0 310 -1 325 -19 335 -25 13 -91 13 -113 -1z"/>
<path d="M3817 7763 c-12 -11 -8 -88 5 -101 8 -8 45 -12 100 -12 l88 0 2 -287
3 -288 65 0 65 0 3 288 2 287 88 0 c98 0 112 7 112 56 0 67 14 64 -269 64
-142 0 -261 -3 -264 -7z"/>
<path d="M4467 7763 c-16 -4 -17 -27 -15 -346 l3 -342 65 0 65 0 3 148 3 148
132 -3 132 -3 3 -148 3 -148 67 3 67 3 3 341 2 342 -22 6 c-32 8 -91 7 -105
-2 -8 -5 -13 -49 -15 -137 l-3 -130 -130 0 -130 0 -3 130 c-2 88 -7 132 -15
137 -13 8 -80 9 -110 1z"/>
<path d="M5192 7758 c-9 -9 -12 -96 -12 -344 0 -293 2 -333 16 -338 9 -3 101
-6 205 -6 l189 0 0 55 0 55 -135 0 -135 0 0 100 0 100 115 0 115 0 0 50 0 49
-112 3 -113 3 -3 82 -3 82 133 3 133 3 0 55 0 55 -190 3 c-140 2 -194 -1 -203
-10z"/>
<path d="M6146 7754 c-9 -8 -16 -17 -16 -19 0 -1 -49 -144 -110 -316 -60 -173
-110 -322 -110 -331 0 -15 9 -18 59 -18 35 0 63 5 68 13 6 6 20 43 33 80 l22
68 131 -3 132 -3 26 -75 26 -75 72 -3 c64 -3 71 -1 71 16 0 19 -31 110 -170
501 -32 90 -65 168 -72 172 -24 16 -145 10 -162 -7z m174 -416 c0 -9 -184 -11
-192 -2 -5 4 60 212 88 284 5 12 104 -257 104 -282z"/>
<path d="M6680 7761 c-13 -9 -15 -59 -15 -348 l0 -338 67 -3 c82 -4 81 -7 76
161 l-3 117 43 0 c58 0 89 -31 131 -135 18 -44 39 -95 47 -112 13 -33 13 -33
83 -33 64 0 71 2 71 20 0 37 -93 234 -127 269 -37 37 -39 41 -18 41 28 0 92
73 105 119 25 94 -11 177 -95 220 -46 24 -61 26 -200 29 -89 2 -156 -1 -165
-7z m296 -134 c16 -19 24 -40 24 -67 0 -27 -8 -48 -24 -67 -21 -25 -32 -28
-97 -31 l-74 -4 0 102 0 102 73 -4 c66 -3 77 -6 98 -31z"/>
<path d="M7234 7756 c-3 -7 -4 -33 -2 -57 l3 -44 92 -3 93 -3 2 -287 3 -287
65 0 65 0 3 288 2 287 95 0 c91 0 95 1 101 24 3 13 4 38 2 57 l-3 34 -258 3
c-213 2 -258 0 -263 -12z"/>
<path d="M711 6879 c-63 -12 -141 -60 -178 -108 -48 -62 -68 -138 -68 -256 1
-166 46 -260 152 -311 53 -27 67 -29 168 -29 100 0 115 2 167 28 31 15 69 42
84 60 113 134 116 424 6 540 -67 71 -201 102 -331 76z m180 -132 c121 -80 113
-378 -12 -443 -43 -22 -141 -20 -182 3 -18 11 -43 39 -57 64 -22 40 -25 55
-25 154 0 116 15 165 62 207 49 44 159 52 214 15z"/>
<path d="M6503 6876 c-101 -33 -148 -99 -141 -202 5 -88 36 -124 161 -189 53
-27 104 -58 113 -67 26 -26 22 -75 -9 -105 -23 -23 -34 -27 -90 -26 -47 0 -78
7 -117 26 -30 14 -57 24 -62 21 -14 -9 -9 -111 5 -123 29 -23 141 -44 211 -38
138 12 217 82 224 201 3 49 0 71 -17 103 -25 50 -51 69 -164 123 -118 57 -143
95 -92 145 31 32 109 34 174 5 24 -11 47 -20 53 -20 5 0 8 26 6 58 -3 55 -4
58 -40 75 -49 24 -161 31 -215 13z"/>
<path d="M1281 6866 c-8 -9 -11 -109 -9 -347 l3 -334 65 0 65 0 3 138 3 137
107 0 c121 0 132 5 132 60 0 55 -11 60 -132 60 l-108 0 0 90 0 90 113 0 c125
0 137 5 137 56 0 66 6 64 -190 64 -138 0 -180 -3 -189 -14z"/>
<path d="M1955 6847 c-4 -18 -2 -45 4 -60 10 -27 12 -27 101 -27 l90 0 2 -287
3 -288 65 0 65 0 3 288 2 287 94 0 c102 0 106 2 106 60 0 63 12 60 -271 60
l-258 0 -6 -33z"/>
<path d="M2613 6873 c-10 -4 -13 -82 -13 -344 l0 -339 23 -5 c13 -4 43 -5 68
-3 l44 3 3 339 c2 265 -1 341 -10 348 -14 8 -95 10 -115 1z"/>
<path d="M2926 6859 c-14 -20 -16 -65 -16 -345 0 -362 -7 -334 80 -334 34 0
50 4 54 16 3 9 6 138 7 287 l0 272 97 -277 c53 -152 102 -282 108 -288 6 -6
36 -10 70 -8 l59 3 32 90 c19 50 63 173 98 274 36 101 69 189 73 195 4 6 9
-117 12 -274 l5 -285 60 0 60 0 3 332 c2 291 0 333 -14 347 -11 12 -36 16 -95
16 -70 0 -83 -3 -102 -22 -13 -13 -59 -119 -106 -246 -46 -123 -87 -219 -91
-215 -4 4 -42 105 -85 223 -43 118 -86 224 -97 235 -15 16 -34 21 -107 23 -83
4 -90 2 -105 -19z"/>
<path d="M3922 6868 c-14 -14 -17 -654 -4 -676 7 -9 54 -12 203 -10 l194 3 3
53 3 52 -135 0 -136 0 0 100 0 99 113 3 112 3 3 44 c2 28 -1 47 -10 52 -7 5
-59 9 -115 9 l-103 0 0 80 0 80 123 0 c135 0 147 4 147 56 0 66 7 64 -199 64
-132 0 -191 -4 -199 -12z"/>
<path d="M4716 6864 c-14 -14 -16 -56 -14 -347 l3 -332 60 0 60 0 5 285 c3
157 8 278 12 270 8 -17 129 -361 159 -455 32 -98 41 -106 107 -103 69 4 56
-20 178 321 l89 249 5 -284 5 -283 44 -3 c25 -2 55 -1 68 3 l23 5 0 318 c0
235 -4 323 -13 342 -12 23 -19 25 -94 28 -73 2 -84 0 -106 -20 -23 -21 -95
-194 -173 -415 -10 -29 -21 -53 -24 -53 -3 0 -43 104 -89 231 -97 266 -92 259
-215 259 -55 0 -79 -4 -90 -16z"/>
<path d="M5874 6872 c-16 -10 -246 -663 -239 -680 3 -9 22 -12 67 -10 l63 3
25 78 24 77 132 0 132 0 10 -27 c6 -16 16 -46 23 -68 7 -22 17 -46 22 -52 11
-15 133 -18 141 -4 8 13 -213 651 -235 677 -12 15 -144 20 -165 6z m126 -282
c26 -77 45 -142 42 -145 -8 -8 -192 -6 -192 3 0 16 93 292 98 287 3 -2 26 -67
52 -145z"/>
<path d="M6856 6864 c-10 -26 -7 -79 6 -92 8 -8 45 -12 100 -12 l88 0 2 -287
3 -288 44 -3 c25 -2 55 -1 68 3 l23 5 0 285 0 285 90 0 c97 0 110 7 110 64 0
58 10 56 -270 56 -226 0 -259 -2 -264 -16z"/>
<path d="M7502 6868 c-17 -17 -17 -659 0 -676 9 -9 68 -12 205 -12 l193 0 0
55 0 55 -135 0 -135 0 0 100 0 100 114 0 114 0 4 28 c2 15 1 38 -2 52 -6 25
-8 25 -118 28 l-112 3 0 79 0 80 123 0 c67 0 128 4 135 9 9 5 12 25 10 57 l-3
49 -190 3 c-140 2 -194 -1 -203 -10z"/>
<path d="M8072 6868 c-9 -9 -12 -99 -12 -345 l0 -333 23 -5 c13 -4 43 -5 68
-3 l44 3 3 138 3 137 44 0 c60 0 86 -29 143 -165 l47 -110 68 -3 c50 -2 69 1
73 11 10 27 -93 246 -134 285 -19 18 -23 26 -14 30 28 9 85 68 98 99 20 47 17
120 -6 167 -23 48 -68 81 -130 95 -65 15 -303 14 -318 -1z m280 -109 c27 -15
49 -71 42 -108 -11 -52 -46 -75 -124 -79 l-70 -4 0 101 0 101 66 0 c36 0 74
-5 86 -11z"/>
<path d="M8623 6864 c-3 -9 35 -95 96 -214 l101 -198 0 -131 c0 -148 -2 -146
91 -139 l44 3 5 135 5 135 104 198 c57 109 100 204 97 212 -4 11 -21 15 -63
15 -32 0 -63 -4 -69 -8 -11 -6 -82 -159 -114 -242 -19 -49 -27 -56 -35 -29
-16 48 -118 264 -129 271 -6 4 -37 8 -69 8 -43 0 -59 -4 -64 -16z"/>
<path d="M3211 5747 c-19 -6 -44 -25 -55 -40 -20 -27 -21 -41 -21 -250 0 -206
1 -224 20 -249 26 -35 69 -53 127 -52 54 1 91 22 115 67 15 27 18 63 21 227 3
213 -3 242 -58 282 -33 23 -106 31 -149 15z m77 -109 c8 -8 12 -64 12 -184 0
-142 -3 -174 -15 -184 -33 -28 -40 3 -40 178 0 194 7 226 43 190z"/>
<path d="M1190 5455 l0 -295 60 0 60 0 0 136 c0 124 2 135 18 132 15 -3 18
-20 22 -133 l5 -130 58 -3 57 -3 0 136 c0 118 -2 137 -18 153 -18 18 -18 20 5
46 19 22 23 38 23 89 0 34 -5 79 -10 99 -17 59 -38 68 -167 68 l-113 0 0 -295z"/>
<path d="M1510 5455 l0 -295 120 0 120 0 0 55 0 55 -60 0 -60 0 0 70 0 70 55
0 55 0 0 55 0 55 -55 0 -55 0 0 60 0 60 55 0 55 0 0 55 0 55 -115 0 -115 0 0
-295z"/>
<path d="M1816 5718 c-3 -18 -7 -62 -10 -98 -12 -145 -36 -397 -40 -427 l-5
-33 60 0 59 0 0 45 0 45 40 0 40 0 0 -45 0 -45 58 0 58 0 -23 243 c-12 133
-25 266 -28 295 l-6 52 -99 0 -99 0 -5 -32z"/>
<path d="M2094 5455 l-1 -295 106 0 c118 0 138 8 169 63 14 27 17 61 17 232 0
285 -6 295 -187 295 l-103 0 -1 -295z m171 173 c3 -13 4 -97 3 -188 l-3 -165
-27 -3 -28 -3 0 190 0 191 25 0 c17 0 26 -7 30 -22z"/>
<path d="M2410 5741 c0 -10 39 -178 70 -305 13 -52 20 -114 20 -178 l0 -98 55
0 55 0 0 95 c0 78 8 129 45 285 25 104 45 194 45 200 0 7 -21 10 -57 8 l-58
-3 -6 -40 c-4 -22 -10 -62 -14 -88 -3 -27 -9 -47 -11 -44 -3 3 -11 43 -17 88
l-12 84 -57 3 c-33 2 -58 -1 -58 -7z"/>
<path d="M2850 5695 l0 -55 35 0 35 0 0 -240 0 -240 60 0 60 0 0 240 0 240 35
0 35 0 0 55 0 55 -130 0 -130 0 0 -55z"/>
<path d="M1904 4930 c-37 -12 -68 -44 -83 -89 -14 -44 -15 -353 0 -405 6 -22
24 -52 39 -68 24 -23 37 -28 78 -28 35 0 57 6 76 21 l27 21 6 -21 c4 -14 13
-21 29 -21 l24 0 -2 173 -3 172 -65 0 -65 0 -3 -47 c-2 -38 0 -48 12 -48 13 0
16 -13 16 -64 0 -71 -17 -99 -45 -76 -12 10 -15 44 -15 184 0 94 4 177 9 184
5 8 17 12 27 10 15 -2 20 -14 22 -51 l3 -47 55 0 54 0 -1 48 c-1 61 -19 111
-50 134 -29 22 -103 31 -145 18z"/>
<path d="M1182 4683 c3 -270 7 -291 63 -327 35 -23 125 -23 163 -1 56 33 57
38 60 318 l3 257 -55 0 -56 0 0 -228 c0 -179 -3 -232 -14 -247 -12 -16 -16
-17 -30 -6 -14 12 -16 45 -16 247 l0 234 -61 0 -61 0 4 -247z"/>
<path d="M1500 4635 l0 -295 60 0 60 0 0 114 0 113 52 5 c42 4 57 11 79 36 44
49 51 190 13 264 -25 49 -49 58 -161 58 l-103 0 0 -295z"/>
<path d="M2140 4635 l0 -295 60 0 60 0 0 135 c0 104 3 135 13 135 31 0 37 -24
37 -147 l0 -123 55 0 55 0 0 135 c0 119 -2 137 -19 154 -18 18 -18 19 1 39 41
40 36 195 -7 238 -23 23 -31 24 -140 24 l-115 0 0 -295z"/>
<path d="M2490 4911 c0 -11 -9 -102 -19 -203 -11 -101 -23 -225 -27 -275 l-7
-93 57 0 c51 0 56 2 56 23 0 52 11 67 46 67 32 0 33 -2 36 -42 l3 -43 58 -3
57 -3 -5 38 c-3 21 -14 137 -25 258 -11 121 -23 237 -26 258 l-6 37 -99 0
c-91 0 -99 -2 -99 -19z"/>
<path d="M2780 4635 l0 -295 98 0 c111 0 137 10 166 60 19 32 21 51 21 235 0
284 -7 295 -185 295 l-100 0 0 -295z m164 179 c3 -9 6 -92 6 -185 0 -167 0
-170 -22 -178 -13 -5 -27 -7 -31 -4 -4 3 -6 90 -5 194 3 186 3 189 24 189 12
0 25 -7 28 -16z"/>
<path d="M3100 4635 l0 -295 120 0 120 0 0 55 0 55 -60 0 -60 0 0 70 0 70 55
0 55 0 0 55 0 55 -55 0 -55 0 0 60 0 60 60 0 60 0 0 55 0 55 -120 0 -120 0 0
-295z"/>
<path d="M8018 4243 c27 -19 27 -30 -1 -113 -76 -227 -218 -320 -487 -320
-271 1 -425 80 -473 246 l-15 51 59 34 c61 34 97 65 87 75 -3 3 -41 -10 -84
-30 -44 -19 -144 -53 -224 -75 -250 -70 -373 -125 -485 -216 -154 -126 -297
-328 -442 -623 -74 -149 -100 -193 -116 -196 -12 -3 -76 -14 -142 -26 -131
-24 -409 -93 -658 -164 -87 -25 -200 -54 -252 -66 l-94 -22 -10 -67 c-34 -210
-40 -360 -16 -384 21 -21 262 -70 570 -117 33 -5 135 -20 227 -34 269 -42 669
-96 706 -96 74 0 153 63 240 193 29 42 52 81 52 86 0 5 5 13 12 17 8 5 10 -57
5 -257 -6 -245 -5 -268 13 -327 27 -86 25 -119 -10 -170 -31 -47 -35 -71 -45
-267 -7 -123 -27 -297 -46 -396 -8 -41 -8 -62 0 -77 15 -29 138 -85 270 -124
l113 -33 -6 -56 c-18 -181 -125 -299 -283 -315 -36 -4 -60 -11 -57 -16 8 -12
81 -3 146 18 103 33 188 150 211 290 6 38 12 70 13 72 1 1 44 -7 95 -18 137
-31 385 -76 534 -96 72 -10 131 -19 133 -20 2 -1 32 -227 32 -242 0 -12 84 9
101 24 24 21 49 103 49 159 l0 41 63 -7 c122 -15 523 -31 604 -24 l82 7 63
-65 c47 -48 75 -68 113 -80 65 -20 135 -30 135 -18 0 4 -24 11 -52 15 -73 9
-151 49 -193 99 -32 37 -34 42 -18 49 10 3 32 7 50 7 108 3 263 60 308 113 33
38 32 69 -5 215 -69 276 -90 470 -97 877 l-6 329 59 -7 c223 -28 461 -29 582
-1 79 18 142 61 142 95 0 11 4 22 10 25 7 4 11 -371 13 -1107 1 -612 2 -389 2
497 0 886 -2 1437 -5 1226 l-5 -384 -18 89 c-72 358 -347 957 -583 1271 -183
243 -242 275 -719 393 -255 64 -284 69 -247 43z m-906 -377 c83 -63 224 -98
398 -99 132 0 218 17 313 63 70 35 48 12 -25 -26 -103 -52 -244 -72 -393 -54
-123 15 -209 41 -271 83 -47 31 -114 107 -114 129 0 6 13 -7 29 -29 16 -23 45
-53 63 -67z m932 -608 c3 -18 7 -63 10 -99 8 -108 35 -166 131 -289 l87 -111
-11 -57 c-6 -31 -29 -124 -50 -207 -28 -111 -42 -149 -52 -147 -8 2 -97 19
-199 37 -102 18 -193 36 -202 40 -18 7 -31 34 -26 56 2 9 -8 15 -25 17 -34 4
-51 34 -42 78 5 30 3 34 -14 34 -13 0 -26 12 -36 30 -19 37 -19 49 3 73 12 15
14 21 5 24 -18 7 -16 64 3 92 21 29 117 73 209 95 39 10 77 19 86 22 13 3 18
30 28 130 13 142 36 214 70 214 15 0 21 -8 25 -32z m-332 -2674 c4 -3 8 -22 8
-42 -1 -95 -41 -166 -90 -160 -23 3 -26 8 -32 68 -4 36 -9 85 -12 109 l-6 44
62 -7 c34 -4 66 -10 70 -12z"/>
<path d="M1174 4108 c-2 -3 9 -62 25 -130 57 -236 61 -260 61 -359 l0 -99 55
0 55 0 0 86 c0 66 10 130 44 277 24 106 46 201 48 211 3 18 -2 19 -52 17 -30
-2 -56 -4 -58 -6 -2 -2 -9 -37 -15 -78 -7 -42 -15 -78 -18 -81 -3 -3 -11 32
-18 78 l-13 84 -55 4 c-30 1 -57 0 -59 -4z"/>
<path d="M1573 4113 c-34 -7 -81 -59 -88 -97 -4 -18 -5 -118 -3 -222 3 -206 8
-224 65 -261 38 -25 124 -23 160 3 57 41 63 70 63 282 0 210 -7 244 -54 275
-28 19 -104 29 -143 20z m75 -292 c2 -139 -1 -186 -10 -192 -32 -20 -38 11
-38 191 0 97 3 180 7 184 4 4 14 5 23 4 13 -3 15 -31 18 -187z"/>
<path d="M1802 3857 c3 -276 5 -285 65 -324 38 -25 124 -23 160 3 59 43 63 65
63 332 l0 242 -60 0 -60 0 0 -239 c0 -242 -4 -267 -35 -241 -12 10 -15 54 -15
246 l0 234 -61 0 -60 0 3 -253z"/>
<path d="M2120 3815 l0 -295 60 0 60 0 0 136 c0 124 2 135 18 132 15 -3 17
-19 20 -136 l3 -132 60 0 61 0 -4 141 c-3 121 -5 142 -20 150 -17 9 -16 12 5
40 41 56 25 223 -24 249 -10 6 -67 10 -128 10 l-111 0 0 -295z"/>
<path d="M1190 2990 l0 -300 60 0 60 0 0 135 0 135 55 0 55 0 0 60 0 60 -55 0
-55 0 0 45 0 45 60 0 61 0 -3 58 -3 57 -117 3 -118 3 0 -301z"/>
<path d="M1450 3036 c0 -247 1 -254 23 -287 12 -18 34 -39 47 -46 36 -18 117
-16 151 4 55 33 59 56 59 332 l0 251 -55 0 -55 0 0 -239 c0 -192 -3 -241 -14
-250 -11 -9 -18 -8 -30 4 -14 14 -16 49 -16 251 l0 234 -55 0 -55 0 0 -254z"/>
<path d="M1744 3276 c-3 -7 -4 -33 -2 -57 3 -42 5 -44 36 -47 l32 -3 0 -240 0
-239 60 0 60 0 0 240 0 240 35 0 35 0 0 60 0 60 -125 0 c-98 0 -127 -3 -131
-14z"/>
<path d="M2020 3045 c0 -261 4 -290 49 -329 30 -27 127 -34 169 -12 63 32 67
53 67 331 l0 250 -55 0 -55 0 -3 -236 c-2 -244 -7 -271 -42 -249 -12 8 -16 51
-18 250 l-3 240 -55 0 -54 0 0 -245z"/>
<path d="M2347 3283 c-4 -3 -7 -138 -7 -300 l0 -293 60 0 60 0 0 135 c0 126 1
135 19 135 27 0 31 -18 31 -151 l0 -119 55 0 55 0 0 137 c0 113 -3 140 -17
155 -15 17 -15 19 3 39 14 16 20 39 22 98 3 86 -15 137 -58 158 -26 13 -211
18 -223 6z"/>
<path d="M2660 2990 l0 -300 120 0 120 0 0 60 0 60 -60 0 -60 0 0 70 0 70 55
0 55 0 0 49 0 50 -52 3 -53 3 -3 57 -3 57 58 3 58 3 0 55 0 55 -117 3 -118 3
0 -301z"/>
<path d="M2991 3273 c-50 -25 -71 -66 -71 -140 l0 -63 60 0 60 0 0 33 c0 55
10 77 35 77 29 0 40 -48 26 -110 -13 -58 -31 -72 -95 -78 l-56 -4 0 -69 0 -69
55 0 c51 0 55 2 55 24 0 19 7 25 43 34 49 13 99 60 116 111 6 19 11 61 11 95
-1 81 -26 137 -73 159 -45 22 -122 21 -166 0z"/>
<path d="M1080 2279 c-85 -38 -129 -102 -137 -199 -10 -106 46 -206 135 -242
34 -14 178 -13 215 1 l27 11 0 110 0 110 -32 1 c-18 1 -52 2 -75 3 -38 1 -43
-1 -43 -21 0 -21 5 -23 45 -23 l45 0 0 -74 c0 -68 -2 -74 -22 -80 -39 -10 -87
-7 -126 9 -76 33 -105 84 -104 186 1 69 19 108 69 146 34 26 43 28 130 28 88
0 93 1 93 21 0 17 -8 23 -37 28 -70 11 -137 6 -183 -15z"/>
<path d="M1644 2286 c-47 -21 -74 -62 -74 -111 0 -58 25 -86 115 -129 75 -36
95 -56 95 -98 -1 -65 -84 -95 -172 -64 -35 12 -38 12 -44 -6 -8 -28 3 -36 67
-49 98 -20 179 18 199 92 13 48 1 96 -33 126 -12 11 -52 35 -89 52 -52 24 -69
38 -74 58 -18 70 48 116 127 89 38 -13 41 -13 49 7 4 12 4 26 0 31 -15 15
-133 17 -166 2z"/>
<path d="M3660 2284 c-106 -46 -155 -181 -116 -316 43 -150 232 -195 337 -81
49 52 63 92 63 178 0 86 -19 138 -66 182 -54 51 -149 67 -218 37z m124 -38
c18 -8 46 -31 62 -52 24 -31 29 -48 33 -111 4 -89 -16 -153 -60 -183 -140
-100 -287 87 -206 263 24 54 44 72 96 88 37 11 38 10 75 -5z"/>
<path d="M260 2060 l0 -230 30 0 30 0 0 100 0 100 49 0 c59 0 84 -24 100 -98
18 -86 27 -102 60 -102 l29 0 -25 88 c-14 51 -34 96 -47 110 l-23 23 39 38
c30 31 38 46 38 75 0 92 -52 126 -189 126 l-91 0 0 -230z m169 179 c35 -12 51
-35 51 -73 0 -57 -38 -86 -115 -86 l-45 0 0 85 0 85 39 0 c21 0 52 -5 70 -11z"/>
<path d="M630 2060 l0 -230 130 0 130 0 0 25 0 25 -100 0 -100 0 0 85 0 85 90
0 c89 0 90 0 90 25 0 25 -1 25 -90 25 l-90 0 0 70 0 70 95 0 c95 0 95 0 95 25
l0 25 -125 0 -125 0 0 -230z"/>
<path d="M1410 2060 l0 -230 30 0 30 0 0 230 0 230 -30 0 -30 0 0 -230z"/>
<path d="M1870 2265 c0 -24 2 -25 70 -25 l70 0 0 -205 0 -205 30 0 30 0 0 205
0 205 70 0 c68 0 70 1 70 25 l0 25 -170 0 -170 0 0 -25z"/>
<path d="M2260 2060 l0 -230 130 0 130 0 0 25 0 25 -100 0 -100 0 0 85 0 85
90 0 c89 0 90 0 90 25 0 25 -1 25 -90 25 l-90 0 0 70 0 70 95 0 c95 0 95 0 95
25 l0 25 -125 0 -125 0 0 -230z"/>
<path d="M2607 2283 c-4 -3 -7 -107 -7 -230 l0 -223 30 0 30 0 0 100 0 100 49
0 c68 0 86 -19 111 -112 11 -43 20 -80 20 -83 0 -3 14 -5 30 -5 17 0 30 3 30
8 -1 33 -52 178 -69 196 l-22 23 25 17 c78 51 69 158 -16 202 -28 14 -198 20
-211 7z m200 -67 c55 -64 6 -136 -93 -136 l-54 0 0 79 c0 54 4 81 13 85 6 3
34 4 61 2 39 -3 55 -9 73 -30z"/>
<path d="M3100 2060 l0 -230 31 0 31 0 -4 190 c-2 105 -2 190 -2 190 1 0 29
-46 63 -102 146 -246 165 -273 199 -276 l32 -3 0 230 0 231 -31 0 -32 0 5
-186 5 -186 -39 69 c-22 37 -74 121 -115 186 -72 111 -77 117 -109 117 l-34 0
0 -230z"/>
<path d="M4000 2281 c0 -5 25 -106 55 -225 30 -118 55 -218 55 -221 0 -4 15
-5 32 -3 l33 3 50 187 50 186 45 -189 45 -189 31 0 32 0 51 183 c29 101 58
205 66 230 l14 47 -29 0 c-34 0 -38 -10 -93 -237 -17 -73 -34 -133 -37 -133
-3 0 -20 66 -37 148 -51 229 -49 224 -85 220 -35 -3 -28 15 -99 -258 -28 -106
-34 -120 -40 -95 -4 17 -24 103 -45 193 l-38 162 -28 0 c-15 0 -28 -4 -28 -9z"/>
<path d="M4600 2171 c0 -157 8 -211 30 -211 14 0 18 14 24 92 3 50 6 124 6
165 l0 73 -30 0 -30 0 0 -119z"/>
<path d="M204 1721 c-31 -31 -29 -31 2251 -31 1998 0 2255 2 2255 15 0 8 -8
15 -17 15 -10 0 -1023 1 -2251 2 -1229 2 -2236 1 -2238 -1z"/>
<path d="M359 1491 c-116 -37 -214 -135 -250 -252 -17 -55 -19 -95 -19 -422 0
-390 4 -426 53 -510 47 -79 154 -160 241 -181 16 -4 1285 -7 2820 -7 l2791 0
57 21 c70 26 125 65 170 121 85 105 88 125 88 556 0 326 -2 367 -19 422 -36
116 -129 210 -248 250 l-62 21 -2783 -1 c-2645 0 -2786 -1 -2839 -18z m5716
-34 c78 -36 146 -104 182 -181 l28 -61 0 -405 0 -405 -28 -57 c-53 -108 -148
-182 -265 -207 -38 -8 -803 -11 -2795 -11 -3029 0 -2802 -5 -2916 63 -66 39
-135 128 -156 202 -13 44 -15 116 -13 436 l3 384 29 62 c30 66 97 137 157 169
86 45 -37 43 2914 41 l2800 -2 60 -28z"/>
<path d="M385 1358 c-54 -29 -95 -89 -95 -136 0 -22 28 -79 92 -187 10 -16 23
-40 30 -52 6 -13 14 -23 17 -23 4 0 36 48 71 108 56 94 64 113 65 159 0 44 -4
56 -30 83 -53 56 -106 73 -150 48z m100 -75 c14 -15 25 -38 25 -51 0 -29 -51
-82 -80 -82 -25 0 -80 51 -80 75 0 24 31 74 49 78 39 11 62 5 86 -20z"/>
<path d="M924 1226 c-65 -29 -67 -108 -4 -144 40 -23 46 -43 19 -65 -22 -17
-40 -17 -83 -1 -12 4 -16 0 -16 -15 0 -47 101 -51 146 -6 38 38 32 78 -16 117
-56 44 -53 74 7 71 27 -1 43 3 47 12 12 31 -54 52 -100 31z"/>
<path d="M1096 1221 c-8 -13 -46 -201 -46 -228 0 -22 4 -23 69 -23 54 0 70 4
75 16 9 24 9 24 -38 24 -51 0 -56 4 -49 43 5 24 9 27 48 27 34 0 44 4 48 19 7
26 0 31 -43 31 -34 0 -37 2 -33 25 5 21 11 24 57 27 44 3 51 6 54 26 3 21 0
22 -67 22 -38 0 -72 -4 -75 -9z"/>
<path d="M1277 1223 c-4 -3 -7 -15 -7 -25 0 -13 8 -18 30 -18 35 0 36 -5 15
-100 -21 -95 -20 -112 7 -108 20 3 25 14 43 106 l20 102 36 0 c28 0 38 5 42
19 3 11 2 22 -1 25 -8 8 -177 7 -185 -1z"/>
<path d="M1590 1208 c-7 -19 -50 -218 -50 -235 0 -3 34 -3 76 -1 69 3 79 6
100 31 27 32 31 78 9 97 -14 12 -13 16 5 36 46 48 6 94 -83 94 -40 0 -49 -4
-57 -22z"/>
<path d="M1937 1223 c-4 -3 -7 -15 -7 -25 0 -15 8 -18 45 -18 25 0 45 -3 45
-6 0 -3 -31 -42 -70 -86 -38 -45 -70 -89 -70 -99 0 -17 9 -19 84 -19 80 0 96
6 96 35 0 2 -25 5 -56 7 l-57 3 72 84 c43 52 71 94 71 108 0 22 -3 23 -73 23
-41 0 -77 -3 -80 -7z"/>
<path d="M2150 1208 c-7 -18 -50 -218 -50 -234 0 -2 33 -4 74 -4 70 0 86 7 86
36 0 2 -22 4 -50 4 -52 0 -55 4 -44 47 5 17 15 23 48 25 34 2 42 7 44 26 3 20
-1 22 -38 22 -34 0 -41 3 -36 16 3 9 6 20 6 25 0 5 22 9 49 9 47 0 61 9 61 41
0 5 -32 9 -70 9 -64 0 -71 -2 -80 -22z"/>
<path d="M2355 1218 c-7 -24 -45 -217 -45 -233 0 -11 7 -15 22 -13 18 2 25 13
33 50 5 25 13 49 17 53 12 12 48 -16 48 -38 0 -47 12 -67 38 -67 24 0 24 2 18
47 -3 26 -10 51 -16 57 -5 5 2 19 21 36 42 40 39 84 -8 109 -30 15 -122 14
-128 -1z"/>
<path d="M2560 1205 c0 -21 5 -25 30 -25 17 0 30 -4 30 -9 0 -9 -24 -129 -35
-178 -4 -19 -1 -23 19 -23 28 0 34 16 57 140 l13 70 38 0 c34 0 38 3 38 25 0
25 0 25 -95 25 -95 0 -95 0 -95 -25z"/>
<path d="M2790 1208 c-7 -18 -50 -218 -50 -234 0 -2 33 -4 74 -4 70 0 86 7 86
36 0 2 -22 4 -50 4 -52 0 -55 4 -44 47 5 17 15 23 48 25 34 2 42 7 44 26 3 20
-1 22 -36 22 -36 0 -39 2 -34 25 4 23 9 25 52 25 46 0 60 10 60 41 0 5 -32 9
-70 9 -64 0 -71 -2 -80 -22z"/>
<path d="M4794 1166 c-50 -22 -104 -106 -104 -162 l0 -23 -57 21 c-78 28 -196
30 -238 5 -49 -30 -69 -65 -73 -129 -8 -107 50 -228 160 -337 197 -195 437
-248 530 -119 32 45 32 152 1 221 l-22 47 -138 0 c-245 0 -413 60 -413 145 0
52 97 113 210 131 37 6 40 5 40 -17 1 -68 80 -162 143 -172 112 -16 205 89
195 222 -10 135 -123 215 -234 167z"/>
<path d="M4195 1070 c16 -17 17 -25 7 -58 -27 -89 -112 -189 -302 -355 -63
-55 -125 -109 -138 -120 l-22 -21 24 60 c13 32 32 92 41 132 17 68 22 77 81
134 92 89 107 158 35 158 -37 0 -92 -59 -130 -140 -17 -36 -31 -69 -31 -75 0
-13 -50 -53 -165 -135 -49 -35 -108 -79 -131 -97 -60 -49 -64 -40 -8 20 65 69
145 179 178 244 33 67 36 148 6 186 -31 39 -99 61 -169 54 -126 -11 -285 -120
-337 -230 -31 -67 -31 -108 0 -144 21 -25 31 -28 83 -28 47 0 67 6 108 31 89
54 148 158 125 218 -5 14 -14 26 -20 26 -7 0 -7 -6 0 -20 36 -67 -115 -240
-209 -240 -44 0 -57 8 -70 41 -32 85 63 225 196 291 118 58 207 50 234 -20 29
-75 -81 -274 -269 -491 -49 -56 -70 -87 -63 -94 7 -7 19 -4 38 8 43 28 279
196 368 263 44 33 81 60 82 58 5 -5 -80 -244 -98 -272 -23 -39 -24 -44 -1 -44
9 0 60 39 112 86 52 47 107 94 123 105 l27 20 0 -85 c0 -75 -2 -87 -20 -96
-36 -19 -21 -30 39 -30 61 0 88 13 51 25 -18 6 -20 15 -20 119 l0 113 79 67
c148 125 243 253 226 305 -9 30 -33 51 -57 51 -20 0 -21 -1 -3 -20z"/>
<path d="M4123 690 c5 -22 1 -29 -18 -38 -14 -7 -37 -36 -54 -70 -29 -57 -29
-58 -10 -77 10 -11 30 -32 44 -47 25 -29 80 -39 101 -18 8 8 15 6 24 -5 20
-24 25 -18 26 35 l0 49 -23 -25 c-22 -24 -26 -25 -46 -11 -12 8 -23 24 -25 36
-3 20 0 22 35 17 51 -8 67 4 58 42 -7 35 -47 82 -70 82 -8 0 -15 7 -15 15 0 8
5 15 10 15 21 0 9 18 -16 23 -24 4 -26 2 -21 -23z"/>
<path d="M278 689 c-16 -9 -18 -28 -18 -158 0 -127 2 -150 16 -155 9 -3 85 -6
170 -6 116 0 154 3 154 13 0 9 -39 12 -162 12 l-163 0 0 115 0 115 154 3 c117
2 156 -1 163 -10 4 -8 8 3 8 29 0 46 -19 62 -35 29 -14 -27 -38 -27 -50 2 -12
27 -25 29 -25 3 0 -38 -49 -30 -51 9 0 9 -4 6 -9 -7 -12 -28 -46 -30 -55 -3
-8 25 -25 26 -25 1 0 -35 -44 -35 -51 1 -3 13 -8 15 -21 7z"/>
<path d="M780 618 c-5 -13 -16 -61 -25 -108 -9 -47 -18 -95 -21 -107 -3 -19 0
-23 19 -23 22 0 26 7 41 88 26 135 28 136 45 22 15 -100 17 -105 40 -105 20 0
34 17 83 105 32 58 58 98 58 90 -1 -8 -9 -54 -19 -102 -10 -48 -16 -90 -13
-93 6 -6 42 -7 42 -1 0 2 11 58 25 126 14 68 25 124 25 126 0 2 -15 4 -34 4
-43 0 -54 -11 -107 -107 -48 -86 -49 -86 -64 29 -9 64 -19 78 -56 78 -21 0
-32 -6 -39 -22z"/>
<path d="M1186 598 c-85 -150 -113 -204 -109 -210 11 -19 44 -6 58 22 14 27
20 30 64 30 47 0 50 -2 56 -30 5 -23 12 -30 31 -30 28 0 28 -2 9 120 -23 144
-21 140 -55 140 -24 0 -34 -8 -54 -42z"/>
<path d="M1330 637 c0 -2 11 -37 25 -78 22 -64 24 -80 15 -122 -5 -26 -10 -50
-10 -52 0 -3 11 -5 24 -5 25 0 29 6 41 69 4 19 29 64 55 100 66 93 66 91 33
91 -24 0 -34 -9 -58 -50 -17 -27 -33 -50 -37 -50 -7 0 -28 65 -28 88 0 7 -13
12 -30 12 -16 0 -30 -1 -30 -3z"/>
<path d="M1688 614 c-21 -13 -38 -31 -38 -39 0 -17 16 -20 25 -5 11 18 37 11
31 -7 -2 -10 -10 -44 -16 -75 -10 -51 -14 -57 -38 -60 -19 -2 -28 -10 -30 -25
-3 -22 0 -23 72 -23 74 0 76 1 76 25 0 19 -5 25 -20 25 -23 0 -23 9 6 138 8
35 14 65 14 68 0 13 -50 0 -82 -22z"/>
<path d="M1843 625 c-8 -21 -5 -23 47 -26 25 -1 48 -4 52 -6 4 -2 -20 -44 -53
-94 -77 -117 -79 -121 -44 -117 24 2 40 20 96 108 37 58 69 115 72 128 4 21 2
22 -80 22 -66 0 -85 -3 -90 -15z"/>
<path d="M2037 633 c-17 -16 -5 -33 22 -33 17 0 32 -4 35 -8 3 -5 -4 -48 -15
-97 -24 -113 -24 -117 4 -113 23 3 29 19 57 160 11 56 12 57 48 60 26 2 38 8
40 21 3 15 -6 17 -91 17 -51 0 -97 -3 -100 -7z"/>
<path d="M2275 628 c-9 -23 -45 -210 -45 -230 0 -14 6 -19 23 -16 18 2 24 12
32 58 l11 55 48 3 48 3 -7 -48 c-4 -26 -8 -52 -8 -58 -1 -5 9 -10 23 -10 23 0
26 6 47 110 29 141 29 147 1 143 -17 -2 -25 -13 -33 -48 -11 -45 -11 -45 -59
-48 l-48 -3 7 50 c6 48 5 51 -14 51 -12 0 -24 -6 -26 -12z"/>
<path d="M5526 613 c4 -16 8 -41 8 -58 l1 -30 -220 -3 c-126 -1 -224 -7 -229
-12 -7 -7 185 -10 553 -10 372 0 560 3 556 10 -4 6 -123 10 -326 10 l-319 0
20 53 c22 58 24 67 11 67 -5 0 -12 -10 -15 -22 l-7 -23 -9 23 c-14 33 -34 29
-24 -5z"/>
<path d="M5089 478 c-1 -2 -2 -15 -3 -30 -2 -23 2 -28 22 -28 17 0 22 5 20 18
-1 9 2 18 7 20 6 1 11 -6 13 -18 4 -26 22 -26 22 0 0 26 16 26 23 0 5 -18 13
-20 112 -19 99 2 106 3 102 20 -3 12 0 19 9 19 8 0 14 -9 14 -20 0 -11 5 -20
10 -20 6 0 10 6 10 14 0 8 3 21 6 29 5 13 -13 15 -115 15 -115 1 -120 0 -124
-21 -4 -22 -4 -22 -6 1 -1 20 -6 22 -61 22 -33 0 -61 -1 -61 -2z"/>
</g>
</svg>
